# xmcd CD database file
#
# Track frame offsets:
#	150
#	18513
#	37285
#	55971
#	76220
#	93388
#	114174
#	129824
#	144998
#	160920
#	180879
#	199924
#	215505
#
# Disc length: 3151 seconds
#
# Revision: 1
# Processed by: cddbd v1.5.1PL0 Copyright (c) Steve Scherf et al.
# Submitted via: CDex 1.51
#
DISCID=a70c4d0d
DTITLE=남예지 - Am I BLuE?
DYEAR=2004
DGENRE=Jazz
TTITLE0=일년후에
TTITLE1=미소를 띄우며 나를 보낸 그 모습처럼
TTITLE2=Misty Eyes
TTITLE3=우습잖아요
TTITLE4=그댄 왠지 달라요
TTITLE5=내 생애 최고의 이별
TTITLE6=사랑합니다
TTITLE7=The Times Forgotten
TTITLE8=우울한 날
TTITLE9=어쩌면 마지막일지라도
TTITLE10=이름만
TTITLE11=춘천 가는 기차
TTITLE12=너무 사랑했던 날
EXTD=YEAR: 2004
EXTT0=
EXTT1=
EXTT2=
EXTT3=
EXTT4=
EXTT5=
EXTT6=
EXTT7=
EXTT8=
EXTT9=
EXTT10=
EXTT11=
EXTT12=
PLAYORDER=
